<?xml version="1.0" encoding="iso-8859-1"?>
<!-- Generator: Adobe Illustrator 19.0.0, SVG Export Plug-In . SVG Version: 6.00 Build 0)  -->
<svg version="1.1" id="Layer_1" xmlns="http://www.w3.org/2000/svg" xmlns:xlink="http://www.w3.org/1999/xlink" x="0px" y="0px"
	 viewBox="0 0 512.001 512.001" style="enable-background:new 0 0 512.001 512.001;" xml:space="preserve">
<g>
	<g>
		<g>
			<path d="M405.334,224.001c0-82.347-90.923-149.333-202.667-149.333S0.001,141.654,0.001,224.001
				c0,35.605,16.811,69.333,47.616,96.235l-43.52,34.027c-3.584,2.795-4.992,7.573-3.52,11.883
				c1.472,4.309,5.547,7.189,10.091,7.189h192C314.411,373.334,405.334,306.347,405.334,224.001z"/>
			<path d="M507.905,418.262l-43.541-34.027c30.827-26.88,47.637-60.629,47.637-96.235c0-45.568-27.691-88-75.989-116.459
				c-3.797-2.219-8.576-1.899-12.011,0.811c-3.456,2.731-4.885,7.296-3.584,11.499c4.139,13.547,6.251,27.051,6.251,40.149
				c0,93.781-96.384,168.683-219.413,170.496c-4.971,0.064-9.259,3.584-10.261,8.469c-1.024,4.885,1.472,9.813,5.995,11.883
				c32.213,14.699,68.971,22.485,106.347,22.485h192c4.565,0,8.597-2.88,10.091-7.189
				C512.897,425.835,511.489,421.078,507.905,418.262z"/>
		</g>
	</g>
</g>
<g>
</g>
<g>
</g>
<g>
</g>
<g>
</g>
<g>
</g>
<g>
</g>
<g>
</g>
<g>
</g>
<g>
</g>
<g>
</g>
<g>
</g>
<g>
</g>
<g>
</g>
<g>
</g>
<g>
</g>
</svg>
